PathFileType	4	(X/Y/Z)	C:/Users/beibeiliu/ov580/test_trc\sequence.3_training_dense_right.trc
DataRate	CameraRate	NumFrames	NumMarkers	Units	OrigDataRate	OrigDataStartFrame	OrigNumFrames
120	120	16	19	mm	120	1	319
Frame#	Time	ThumbCMC			ThumbMCP			ThumbIP			ThumbTip			IndexMCP			IndexPIP			IndexTip			MiddleMCP			MiddlePIP			MiddleTip			RingMCP			RingPIP			RingTip			PinkyMCP			PinkyPIP			PinkyTip			BackHand1			BackHand2			BackHand3	
		X0	Y0	Z0	X1	Y1	Z1	X2	Y2	Z2	X3	Y3	Z3	X4	Y4	Z4	X5	Y5	Z5	X6	Y6	Z6	X7	Y7	Z7	X8	Y8	Z8	X9	Y9	Z9	X10	Y10	Z10	X11	Y11	Z11	X12	Y12	Z12	X13	Y13	Z13	X14	Y14	Z14	X15	Y15	Z15	X16	Y16	Z16	X17	Y17	Z17	X18	Y18	Z18	
0	0	143.822	-48.346	6.54704	136.394	-84.3008	2.48996	150.768	-104.831	-7.66153	174.388	-112.475	-12.2574	156.151	-88.8441	-43.3594	158.673	-107.164	-21.806	151.48	-84.3068	-7.70192	176.89	-92.7495	-38.4322	173.021	-110.399	-13.9599	169.923	-81.9917	3.74186	190.095	-91.2134	-27.6026	182.96	-98.5995	-2.72997	178.329	-71.339	6.95277	201.717	-84.4715	-17.7593	192.035	-88.5008	4.73107	184.266	-65.3449	10.3003	188.002	-41.1551	-23.8034	183.17	-19.2635	-4.09092	159.804	-31.0963	-14.815	
1	0.00833333	145.459	-42.0621	1.42586	134.157	-67.8895	-5.9567	152.05	-89.3825	-16.5091	172.959	-100.5	-13.0106	155.136	-86.1669	-41.9321	146.729	-106.698	-23.9339	147.776	-79.3963	-10.8593	167.893	-94.0047	-35.2277	158.804	-113.079	-9.61752	159.685	-89.6128	11.8763	180.394	-98.6511	-23.0223	176.738	-105.814	0.582824	171.464	-77.1138	11.1073	194.975	-91.7641	-10.6472	181.917	-91.6815	11.171	179.269	-65.9948	7.94709	193.51	-48.567	-19.3992	193.381	-25.7312	-1.47692	168.27	-31.8151	-17.4747	
2	0.0166667	149.888	-33.2743	4.70086	137.854	-60.5886	-10.1135	150.216	-84.331	-18.0164	172.729	-92.2788	-9.23834	153.475	-84.7411	-40.3903	138.766	-102.971	-26.7476	144.052	-78.161	-9.2496	161.537	-99.265	-32.738	147.619	-112.254	-10.6145	150.905	-89.2624	13.1223	177.033	-101.972	-19.1798	163.053	-107.279	0.209189	164.845	-81.9138	14.6945	187.025	-99.1025	-5.60707	174.581	-95.2847	13.8338	175.402	-70.9289	12.7306	197.928	-56.3483	-16.0179	203.757	-34.6102	-0.593479	178.764	-32.6982	-15.396	
3	0.025	156.379	-30.1405	1.31071	138.26	-53.4878	-10.6488	150.749	-80.7214	-17.1211	169.874	-93.8559	-4.00172	152.078	-79.4383	-39.8137	133.337	-93.8696	-22.6888	144.673	-71.6998	-8.4093	162.865	-98.4724	-31.0891	141.869	-110.266	-10.6057	144.713	-89.6207	11.9098	169.585	-103.903	-18.3938	152.549	-106.47	3.64123	156.309	-82.5666	15.8853	181.393	-101.774	-1.84477	165.534	-98.2847	14.4361	174.295	-70.5461	15.0696	199.569	-60.3973	-12.9431	208.15	-40.1494	6.8585	183.153	-36.3888	-16.1507	
4	0.0333333	165.472	-27.6661	-1.03463	145.521	-48.7413	-11.0717	149.295	-76.8506	-15.3545	165.435	-93.8549	-0.369071	153.939	-81.276	-37.6062	130.946	-87.3036	-24.8204	145.521	-66.2273	-8.13964	161.874	-92.4706	-31.3663	134.694	-103.822	-14.9902	134.057	-85.5307	7.57092	169.251	-100.431	-14.8124	143.548	-102.269	0.10312	148.263	-80.4678	17.1189	177.804	-103.615	4.13269	155.84	-94.6194	17.2594	170.534	-73.1813	18.7177	203.271	-65.8328	-3.22758	216.348	-49.7809	13.1942	196.919	-41.8917	-8.10942	
5	0.0416667	176.657	-29.6771	-1.7279	154.923	-46.3486	-10.5728	150.312	-69.8727	-11.3238	157.092	-91.8695	0.912951	156.795	-78.2081	-35.8291	134.111	-80.995	-20.9451	149.778	-55.0719	-12.5996	163.518	-95.7912	-26.2559	133.512	-102.509	-18.5577	128.704	-79.6773	1.85412	163.557	-102.577	-12.4216	139.196	-103.608	-1.96189	138.759	-79.9788	11.3639	167.495	-105.996	9.58419	148.018	-95.2116	14.9733	164.95	-71.8242	24.6358	203.436	-78.5154	6.50545	215.777	-59.4574	18.7495	203.114	-52.4225	-5.77262	
6	0.05	184.732	-33.108	0.229576	157.283	-44.4077	-12.4498	147.309	-71.6062	-12.2272	148.013	-92.6625	3.84519	158.031	-80.355	-31.9436	132.785	-72.5126	-24.2902	152.109	-55.7918	-9.24486	160.759	-96.4	-24.7786	130.233	-97.4247	-20.2675	127.545	-72.4578	-0.245825	160.739	-106.016	-5.88051	134.314	-101.477	-1.84735	132.109	-77.9566	11.744	164.447	-101.985	12.5303	141.717	-91.738	18.5694	158.427	-70.6617	26.9552	202.475	-79.5276	12.007	216.028	-63.0104	24.4255	205.801	-57.5315	-2.50028	
7	0.0583333	188.206	-32.3339	0.522185	158.113	-45.5543	-11.779	145.58	-69.569	-9.34802	143.734	-92.3274	6.89763	154.626	-82.1486	-31.5783	131.365	-71.4662	-19.9233	152.734	-52.2663	-10.9142	153.62	-99.0948	-19.914	124.641	-93.6653	-16.8777	127.741	-66.2842	3.81458	153.678	-105.874	-1.44406	127.965	-98.2785	1.46138	127.567	-72.9939	9.21574	160.288	-101.106	16.1743	137.113	-91.3483	15.6495	149.236	-67.606	28.3392	196.926	-85.8767	11.5181	216.181	-67.7434	26.9585	207.505	-60.4281	-2.10531	
8	0.0666667	187.274	-41.2512	-2.66516	157.053	-46.3002	-12.3666	144.145	-67.0926	-7.51136	137.369	-87.8075	8.7018	148.382	-85.0324	-27.3788	125.593	-71.9735	-20.9421	143.729	-52.6768	-10.3156	147.839	-100.042	-15.7871	117.75	-89.5155	-11.6617	121.319	-65.7086	0.877331	150.408	-102.207	0.796704	123.917	-94.6966	1.85595	125.884	-66.3926	13.7979	152.184	-100.761	19.2244	132.489	-85.5419	17.458	143	-66.6296	29.7036	192.441	-90.6197	17.2914	210.75	-75.5669	27.8165	204.376	-67.4333	0.672733	
9	0.075	190.875	-40.0705	-6.45924	157.212	-47.0028	-15.7205	141.437	-65.2055	-9.36178	133.483	-84.4476	9.76866	144.243	-87.6462	-24.3321	121.863	-74.0636	-23.8757	142.314	-52.1471	-12.7765	139.795	-99.7799	-16.6361	112.799	-86.4852	-10.2734	119.805	-60.5415	-0.507533	142.695	-100.098	5.00752	118.615	-87.3573	4.54265	125.907	-60.5276	12.8042	144.758	-98.2856	24.0018	127.09	-80.5188	20.6294	142.142	-59.5189	24.6661	187.921	-86.7301	16.2164	205.93	-78.4822	27.2644	202.803	-73.8538	1.21853	
10	0.0833333	190.296	-48.3679	-9.08121	157.017	-48.8609	-21.5252	136.498	-61.9725	-11.261	128.623	-75.7802	10.013	142.819	-87.6786	-24.8063	118.127	-70.1519	-22.278	136.588	-52.0405	-11.5905	134.006	-99.6149	-10.2193	108.471	-87.369	-6.38712	122.545	-59.0893	0.525398	131.752	-96.7494	9.14321	113.847	-78.2348	9.23858	129.562	-54.6923	13.998	137.743	-91.8693	28.7372	123.921	-72.4295	23.1121	145.082	-52.9821	24.5535	184.4	-88.0793	18.4065	206.372	-79.8969	27.4728	197.861	-76.1912	1.19232	
11	0.0916667	191.65	-50.1955	-11.7545	160.393	-47.469	-20.8415	132.006	-55.142	-14.5122	118.378	-62.3259	7.71534	134.791	-88.3544	-23.729	114.772	-69.3487	-20.0494	138.992	-52.1683	-15.3861	130.54	-96.3256	-7.72215	105.622	-77.7685	-4.76453	129.009	-56.2366	-3.80625	126.161	-91.1925	12.7516	112.763	-68.9853	12.3746	138.265	-53.4701	12.1052	130.417	-82.0123	27.569	122.603	-58.988	24.6291	144.801	-46.6053	22.5971	173.993	-91.5048	21.868	200.015	-81.6734	28.3431	190.708	-81.8376	-2.38412	
12	0.1	188.637	-54.2295	-16.4186	157.226	-47.7226	-22.0157	133.626	-49.0228	-16.4395	115.369	-54.0622	2.08328	127.092	-87.7015	-22.486	112.567	-64.961	-19.7769	135.817	-50.2313	-20.6381	119.286	-92.0687	-5.5618	104.155	-66.9572	-1.51143	128.737	-51.2001	-2.03266	120.034	-81.0727	13.923	116.084	-54.3549	13.5556	143.381	-50.5538	8.97713	126.127	-73.7341	32.105	122.021	-51.9547	22.3669	145.236	-42.833	15.825	171.107	-91.0096	22.4086	195.069	-81.6205	28.6694	190.235	-85.5463	-0.229398	
13	0.108333	184.529	-59.4196	-13.9846	154.497	-51.3855	-23.3819	132.239	-55.7776	-14.7443	114.408	-56.4089	0.0484858	124.998	-82.349	-16.5983	110.608	-58.2963	-18.1439	141.406	-49.6091	-19.5725	117.208	-82.6003	2.39235	99.3552	-57.7537	-1.3606	125.36	-34.61	-3.50218	115.659	-69.0916	18.3261	116.984	-46.8657	7.82133	142.897	-42.1437	8.22949	126.377	-65.723	35.1984	124.017	-41.7612	22.2704	143.774	-38.0545	13.0261	168.717	-86.551	24.2456	190.284	-82.1354	29.1548	185.647	-86.9948	0.104022	
14	0.116667	182.836	-58.7255	-16.2815	153.473	-47.7309	-26.4012	130.24	-52.2516	-15.6567	110.294	-55.3395	3.96649	117.62	-75.9432	-18.8699	112.145	-49.1523	-18.3165	139.784	-45.3582	-21.5036	113.06	-73.7063	-2.3823	99.0223	-48.5356	-1.2885	125.027	-26.7864	-5.66819	115.999	-60.5024	19.0555	121.328	-34.3806	8.86128	148.849	-38.6633	5.73253	125.527	-59.4437	33.4702	122.021	-35.4672	25.3962	148.736	-33.831	13.149	162.711	-83.8391	27.1858	189.307	-82.1192	27.3933	177.431	-85.4439	0.239233	
15	0.125	181.569	-58.4741	-18.6076	153.515	-45.8517	-24.6709	129.351	-46.2624	-17.2139	112.896	-47.7052	2.08696	116.176	-69.3323	-20.5403	112.968	-41.8872	-21.9586	141.317	-41.3986	-22.8027	109.137	-64.8883	-2.57775	102.367	-36.5076	-6.9237	127.299	-21.0277	-7.60284	114.76	-54.3574	13.4067	119.234	-28.6045	12.353	149.649	-31.0502	7.22839	123.184	-54.5676	33.3131	122.731	-31.3531	24.4108	147.623	-30.1893	13.3597	160.123	-83.0322	27.8891	183.222	-83.3053	30.2929	177.292	-83.9657	0.669109	
